<svg width="997" height="462" viewBox="0 0 997 462" fill="none" xmlns="http://www.w3.org/2000/svg">
<g opacity="0.8" filter="url(#filter0_f_45_19)">
<path fill-rule="evenodd" clip-rule="evenodd" d="M548.734 810.989C484.721 915.485 447.93 1054.47 364.451 1119.61C282.436 1183.6 201.937 1159.8 131.709 1136.39C74.7012 1117.38 44.8666 1053.63 6.90392 1000.41C-29.9091 948.81 -76.3175 909.227 -86.3076 830.777C-97.5064 742.834 -83.4969 641.385 -51.7397 539.894C-13.9436 419.104 22.7683 257.352 110.461 201.936C202.614 143.702 253.452 266.471 327.567 300.2C373.28 321.004 411.082 351.542 461.147 361.532C575.876 384.425 778.749 247.381 807.713 396.011C833.537 528.525 636.2 668.205 548.734 810.989Z" fill="#489FB5"/>
</g>
<defs>
<filter id="filter0_f_45_19" x="-276.325" y="0.289688" width="1272.55" height="1346.74" filterUnits="userSpaceOnUse" color-interpolation-filters="sRGB">
<feFlood flood-opacity="0" result="BackgroundImageFix"/>
<feBlend mode="normal" in="SourceGraphic" in2="BackgroundImageFix" result="shape"/>
<feGaussianBlur stdDeviation="93.1" result="effect1_foregroundBlur_45_19"/>
</filter>
</defs>
</svg>
